<?xml version="1.0" encoding="iso-8859-1"?>
<!-- Uploaded to: SVG Repo, www.svgrepo.com, Generator: SVG Repo Mixer Tools -->
<svg height="800px" width="800px" version="1.1" id="Layer_1" xmlns="http://www.w3.org/2000/svg" xmlns:xlink="http://www.w3.org/1999/xlink" 
	 viewBox="0 0 512 512" xml:space="preserve">
<g transform="translate(0 -1)">
	<path style="fill:#2F3744;" d="M317.793,513H194.207c0-19.5,15.81-35.31,35.31-35.31h52.966
		C301.983,477.69,317.793,493.5,317.793,513"/>
	<path style="fill:#464F5D;" d="M317.793,1C292.564,1,270.451,9.713,256,23.554C241.549,9.713,219.436,1,194.207,1
		c-44.553,0-79.448,27.145-79.448,61.793h35.31c0-12.526,18.132-26.483,44.138-26.483s44.138,13.956,44.138,26.483V477.69h35.31
		V62.793c0-12.526,18.132-26.483,44.138-26.483c26.006,0,44.138,13.956,44.138,26.483h35.31C397.241,28.145,362.346,1,317.793,1"/>
	<polygon style="fill:#2F3744;" points="194.207,133.414 70.621,133.414 114.759,62.793 150.069,62.793 	"/>
	<path style="fill:#F3D55B;" d="M97.103,133.414c0,19.5,15.81,35.31,35.31,35.31s35.31-15.81,35.31-35.31H97.103z"/>
	<polygon style="fill:#2F3744;" points="441.379,133.414 317.793,133.414 361.931,62.793 397.241,62.793 	"/>
	<path style="fill:#F3D55B;" d="M344.276,133.414c0,19.5,15.81,35.31,35.31,35.31c19.5,0,35.31-15.81,35.31-35.31H344.276z"/>
</g>
</svg>